<svg xmlns="http://www.w3.org/2000/svg" width="5000" height="4000" viewBox="0 0 5000 4000" version="1.1"><path d="M 2514 979.676 C 2044.541 989.830, 1636.651 1330.089, 1541.415 1791 C 1536.922 1812.745, 1536.829 1811.766, 1543.778 1815.920 C 1558.675 1824.823, 1572.504 1833.672, 1595.500 1849.019 C 1617.298 1863.566, 1623.612 1867.850, 1634.781 1875.673 C 1637.957 1877.898, 1637.963 1877.883, 1640.613 1860.796 C 1714.729 1382.837, 2149.308 1046.409, 2631 1094.093 C 2948.509 1125.524, 3229.103 1323.745, 3364.052 1611.946 C 3371.753 1628.392, 3371.753 1628.392, 3403.626 1628.513 C 3438.687 1628.646, 3446.945 1629.426, 3477.481 1635.496 C 3497.792 1639.533, 3496.274 1640.667, 3490.471 1625.786 C 3377.018 1334.830, 3126.573 1106.563, 2825.410 1019.617 C 2733.299 993.025, 2621.978 977.517, 2535.500 979.229 C 2530 979.338, 2520.325 979.539, 2514 979.676 M 2110.645 1262.482 C 2105.899 1274.850, 2204.275 1405.413, 2404.862 1652.962 C 2419.774 1671.366, 2431.644 1686.714, 2431.238 1687.069 C 2430.832 1687.423, 2418.575 1693.250, 2404 1700.018 C 2363.473 1718.835, 2359.109 1720.877, 2350.500 1725.051 C 2306.850 1746.214, 2312.116 1807.376, 2358.631 1819.492 C 2375.019 1823.761, 2378.291 1822.729, 2440.906 1793.558 C 2470.932 1779.569, 2496.027 1767.984, 2496.672 1767.812 C 2497.316 1767.640, 2506.109 1777.625, 2516.212 1790 C 2526.315 1802.375, 2543.767 1823.750, 2554.994 1837.500 C 2578.617 1866.430, 2624.665 1922.923, 2636.505 1937.500 C 2640.973 1943, 2654.579 1959.728, 2666.741 1974.673 C 2726.271 2047.826, 2766.477 2098.982, 2771.531 2108 C 2772.959 2110.548, 2734.851 2074.430, 2686.949 2027.835 C 2657.867 1999.546, 2611.240 1951.474, 2588.902 1926.750 C 2581.572 1918.638, 2574.940 1912, 2574.164 1912 C 2573.389 1912, 2541.197 1920.742, 2502.627 1931.426 C 2354.510 1972.455, 2199.656 2014.948, 2059.500 2053.022 C 2004.500 2067.963, 1956.800 2080.958, 1953.500 2081.899 C 1947.500 2083.610, 1947.500 2083.610, 1954 2087.450 C 2077.171 2160.218, 2322.799 2219.996, 2498.639 2219.999 C 2580.926 2220.001, 2606.692 2216.596, 2850.500 2173.508 C 3040.429 2139.941, 3067.087 2134.234, 3226.640 2092.983 C 3764.916 1953.818, 3854.498 1890.446, 3678.500 1773.331 C 3645.911 1751.645, 3672.002 1750.367, 3501.845 1781.986 C 3430.035 1795.330, 3433.556 1794.858, 3428.990 1791.750 C 3416.364 1783.157, 3418.988 1764.679, 3434.368 1753.878 C 3457.038 1737.957, 3507.612 1716.148, 3536.315 1709.915 C 3543.470 1708.362, 3543.558 1708.412, 3522.730 1702.099 C 3441.358 1677.434, 3394.807 1675.598, 3304.500 1693.491 C 3202.651 1713.670, 3041.871 1764.164, 2889.549 1823.807 C 2876.878 1828.769, 2874.993 1824.056, 2906.428 1866 C 2939.147 1909.659, 2939.786 1907.913, 2901.358 1879.870 C 2883.836 1867.083, 2858.700 1848.774, 2845.500 1839.184 C 2803.142 1808.409, 2710.039 1735.042, 2656 1689.853 C 2653.525 1687.783, 2638.225 1675.194, 2622 1661.877 C 2584.888 1631.416, 2553.176 1605.274, 2527.500 1583.976 C 2225.450 1333.424, 2115.857 1248.901, 2110.645 1262.482 M 1258.500 1774.126 C 1235.615 1776.067, 1235.858 1775.490, 1251.847 1789.914 C 1305.004 1837.869, 1365.060 1897.747, 1424.943 1962.500 C 1520.058 2065.348, 1578.363 2157.609, 1580.721 2209 C 1582.430 2246.247, 1568.931 2257.066, 1487.500 2283.713 C 1445.580 2297.430, 1440.649 2299.815, 1427.338 2312.820 C 1378.068 2360.952, 1385.844 2434.335, 1443.089 2461.457 C 1464.163 2471.442, 1474.386 2471.629, 1533 2463.101 C 1671.403 2442.964, 1733.758 2433.583, 1829.500 2418.491 C 2177.950 2363.566, 2418.236 2315.225, 2531 2277.365 C 2554.950 2269.324, 2556.042 2268.705, 2545 2269.426 C 2361.308 2281.423, 2149.901 2253.853, 2018.500 2200.766 C 1947.392 2172.037, 1925.536 2157.897, 1753 2029 C 1662.910 1961.696, 1642.599 1946.789, 1606.518 1921.493 C 1450.153 1811.871, 1343.910 1766.883, 1258.500 1774.126 M 3541 2059.642 C 3524.110 2065.206, 3478.553 2079.279, 3458.043 2085.267 C 3446.587 2088.611, 3446.587 2088.611, 3444.829 2104.556 C 3403.424 2480.001, 3123.630 2796.407, 2754.725 2884.963 C 2381.383 2974.585, 1994.367 2822.558, 1781.720 2502.750 C 1772.207 2488.443, 1768.056 2483, 1766.658 2483 C 1763.215 2483, 1651.814 2499.853, 1651.200 2500.467 C 1648.680 2502.987, 1702.707 2585.053, 1731.868 2623 C 2296.935 3358.314, 3486.640 3005.852, 3557.965 2082 C 3558.538 2074.575, 3559.269 2065.238, 3559.589 2061.250 C 3560.289 2052.530, 3562.107 2052.687, 3541 2059.642" stroke="none" fill="#2952a1" fill-rule="evenodd"/><path d="M 0 2000 C 0 4000, 0 4000, 2500.250 3999.750 C 5000.500 3999.500, 5000.500 3999.500, 5000.750 1999.750 C 5001 0, 5001 -0, 2500.500 -0 C 0 0, 0 0, 0 2000 M 0.499 2000.500 C 0.499 3100.500, 0.612 3550.350, 0.750 3000.167 C 0.888 2449.984, 0.888 1549.984, 0.750 1000.167 C 0.612 450.350, 0.499 900.500, 0.499 2000.500 M 2514 979.676 C 2044.541 989.830, 1636.651 1330.089, 1541.415 1791 C 1536.922 1812.745, 1536.829 1811.766, 1543.778 1815.920 C 1558.675 1824.823, 1572.504 1833.672, 1595.500 1849.019 C 1617.298 1863.566, 1623.612 1867.850, 1634.781 1875.673 C 1637.957 1877.898, 1637.963 1877.883, 1640.613 1860.796 C 1714.729 1382.837, 2149.308 1046.409, 2631 1094.093 C 2948.509 1125.524, 3229.103 1323.745, 3364.052 1611.946 C 3371.753 1628.392, 3371.753 1628.392, 3403.626 1628.513 C 3438.687 1628.646, 3446.945 1629.426, 3477.481 1635.496 C 3497.792 1639.533, 3496.274 1640.667, 3490.471 1625.786 C 3377.018 1334.830, 3126.573 1106.563, 2825.410 1019.617 C 2733.299 993.025, 2621.978 977.517, 2535.500 979.229 C 2530 979.338, 2520.325 979.539, 2514 979.676 M 2110.645 1262.482 C 2105.899 1274.850, 2204.275 1405.413, 2404.862 1652.962 C 2419.774 1671.366, 2431.644 1686.714, 2431.238 1687.069 C 2430.832 1687.423, 2418.575 1693.250, 2404 1700.018 C 2363.473 1718.835, 2359.109 1720.877, 2350.500 1725.051 C 2306.850 1746.214, 2312.116 1807.376, 2358.631 1819.492 C 2375.019 1823.761, 2378.291 1822.729, 2440.906 1793.558 C 2470.932 1779.569, 2496.027 1767.984, 2496.672 1767.812 C 2497.316 1767.640, 2506.109 1777.625, 2516.212 1790 C 2526.315 1802.375, 2543.767 1823.750, 2554.994 1837.500 C 2578.617 1866.430, 2624.665 1922.923, 2636.505 1937.500 C 2640.973 1943, 2654.579 1959.728, 2666.741 1974.673 C 2726.271 2047.826, 2766.477 2098.982, 2771.531 2108 C 2772.959 2110.548, 2734.851 2074.430, 2686.949 2027.835 C 2657.867 1999.546, 2611.240 1951.474, 2588.902 1926.750 C 2581.572 1918.638, 2574.940 1912, 2574.164 1912 C 2573.389 1912, 2541.197 1920.742, 2502.627 1931.426 C 2354.510 1972.455, 2199.656 2014.948, 2059.500 2053.022 C 2004.500 2067.963, 1956.800 2080.958, 1953.500 2081.899 C 1947.500 2083.610, 1947.500 2083.610, 1954 2087.450 C 2077.171 2160.218, 2322.799 2219.996, 2498.639 2219.999 C 2580.926 2220.001, 2606.692 2216.596, 2850.500 2173.508 C 3040.429 2139.941, 3067.087 2134.234, 3226.640 2092.983 C 3764.916 1953.818, 3854.498 1890.446, 3678.500 1773.331 C 3645.911 1751.645, 3672.002 1750.367, 3501.845 1781.986 C 3430.035 1795.330, 3433.556 1794.858, 3428.990 1791.750 C 3416.364 1783.157, 3418.988 1764.679, 3434.368 1753.878 C 3457.038 1737.957, 3507.612 1716.148, 3536.315 1709.915 C 3543.470 1708.362, 3543.558 1708.412, 3522.730 1702.099 C 3441.358 1677.434, 3394.807 1675.598, 3304.500 1693.491 C 3202.651 1713.670, 3041.871 1764.164, 2889.549 1823.807 C 2876.878 1828.769, 2874.993 1824.056, 2906.428 1866 C 2939.147 1909.659, 2939.786 1907.913, 2901.358 1879.870 C 2883.836 1867.083, 2858.700 1848.774, 2845.500 1839.184 C 2803.142 1808.409, 2710.039 1735.042, 2656 1689.853 C 2653.525 1687.783, 2638.225 1675.194, 2622 1661.877 C 2584.888 1631.416, 2553.176 1605.274, 2527.500 1583.976 C 2225.450 1333.424, 2115.857 1248.901, 2110.645 1262.482 M 1258.500 1774.126 C 1235.615 1776.067, 1235.858 1775.490, 1251.847 1789.914 C 1305.004 1837.869, 1365.060 1897.747, 1424.943 1962.500 C 1520.058 2065.348, 1578.363 2157.609, 1580.721 2209 C 1582.430 2246.247, 1568.931 2257.066, 1487.500 2283.713 C 1445.580 2297.430, 1440.649 2299.815, 1427.338 2312.820 C 1378.068 2360.952, 1385.844 2434.335, 1443.089 2461.457 C 1464.163 2471.442, 1474.386 2471.629, 1533 2463.101 C 1671.403 2442.964, 1733.758 2433.583, 1829.500 2418.491 C 2177.950 2363.566, 2418.236 2315.225, 2531 2277.365 C 2554.950 2269.324, 2556.042 2268.705, 2545 2269.426 C 2361.308 2281.423, 2149.901 2253.853, 2018.500 2200.766 C 1947.392 2172.037, 1925.536 2157.897, 1753 2029 C 1662.910 1961.696, 1642.599 1946.789, 1606.518 1921.493 C 1450.153 1811.871, 1343.910 1766.883, 1258.500 1774.126 M 3541 2059.642 C 3524.110 2065.206, 3478.553 2079.279, 3458.043 2085.267 C 3446.587 2088.611, 3446.587 2088.611, 3444.829 2104.556 C 3403.424 2480.001, 3123.630 2796.407, 2754.725 2884.963 C 2381.383 2974.585, 1994.367 2822.558, 1781.720 2502.750 C 1772.207 2488.443, 1768.056 2483, 1766.658 2483 C 1763.215 2483, 1651.814 2499.853, 1651.200 2500.467 C 1648.680 2502.987, 1702.707 2585.053, 1731.868 2623 C 2296.935 3358.314, 3486.640 3005.852, 3557.965 2082 C 3558.538 2074.575, 3559.269 2065.238, 3559.589 2061.250 C 3560.289 2052.530, 3562.107 2052.687, 3541 2059.642" stroke="none" fill="#fbfbfb" fill-rule="evenodd"/></svg>